<svg width="1200" height="48" viewBox="0 0 1200 48" fill="none" xmlns="http://www.w3.org/2000/svg">
<path d="M104.526 23.1006V24.7002H99.3311V23.1006H104.526ZM99.9395 19.0469V29H97.8887V19.0469H99.9395ZM105.989 19.0469V29H103.945V19.0469H105.989ZM115.949 23.791V24.2627C115.949 25.0192 115.847 25.6982 115.642 26.2998C115.437 26.9014 115.147 27.4141 114.773 27.8379C114.4 28.2572 113.953 28.5785 113.434 28.8018C112.919 29.0251 112.347 29.1367 111.718 29.1367C111.093 29.1367 110.521 29.0251 110.002 28.8018C109.487 28.5785 109.04 28.2572 108.662 27.8379C108.284 27.4141 107.99 26.9014 107.78 26.2998C107.575 25.6982 107.473 25.0192 107.473 24.2627V23.791C107.473 23.0299 107.575 22.3509 107.78 21.7539C107.985 21.1523 108.275 20.6396 108.648 20.2158C109.027 19.792 109.473 19.4684 109.988 19.2451C110.508 19.0218 111.08 18.9102 111.704 18.9102C112.333 18.9102 112.905 19.0218 113.42 19.2451C113.939 19.4684 114.386 19.792 114.76 20.2158C115.138 20.6396 115.43 21.1523 115.635 21.7539C115.844 22.3509 115.949 23.0299 115.949 23.791ZM113.878 24.2627V23.7773C113.878 23.2487 113.83 22.7839 113.734 22.3828C113.639 21.9818 113.497 21.6445 113.311 21.3711C113.124 21.0977 112.896 20.8926 112.627 20.7559C112.358 20.6146 112.05 20.5439 111.704 20.5439C111.358 20.5439 111.05 20.6146 110.781 20.7559C110.517 20.8926 110.291 21.0977 110.104 21.3711C109.922 21.6445 109.783 21.9818 109.688 22.3828C109.592 22.7839 109.544 23.2487 109.544 23.7773V24.2627C109.544 24.7868 109.592 25.2516 109.688 25.6572C109.783 26.0583 109.924 26.3978 110.111 26.6758C110.298 26.9492 110.526 27.1566 110.795 27.2979C111.064 27.4391 111.371 27.5098 111.718 27.5098C112.064 27.5098 112.372 27.4391 112.641 27.2979C112.91 27.1566 113.135 26.9492 113.317 26.6758C113.5 26.3978 113.639 26.0583 113.734 25.6572C113.83 25.2516 113.878 24.7868 113.878 24.2627ZM118.362 19.0469H120.099L122.655 26.3545L125.212 19.0469H126.948L123.353 29H121.958L118.362 19.0469ZM117.426 19.0469H119.155L119.47 26.1699V29H117.426V19.0469ZM126.155 19.0469H127.892V29H125.841V26.1699L126.155 19.0469ZM136.368 27.4004V29H131.07V27.4004H136.368ZM131.74 19.0469V29H129.689V19.0469H131.74ZM135.678 23.1006V24.6592H131.07V23.1006H135.678ZM136.361 19.0469V20.6533H131.07V19.0469H136.361Z" fill="white"/>
<rect x="65" y="47" width="104" height="1" fill="#AAAAAA"/>
<path d="M205.478 26.9219L207.822 19.0469H210.105L206.64 29H205.136L205.478 26.9219ZM203.317 19.0469L205.655 26.9219L206.011 29H204.493L201.048 19.0469H203.317ZM213.216 19.0469V29H211.172V19.0469H213.216ZM218.192 29H216.025L216.039 27.4004H218.192C218.73 27.4004 219.184 27.2796 219.553 27.0381C219.922 26.792 220.2 26.4342 220.387 25.9648C220.578 25.4954 220.674 24.9281 220.674 24.2627V23.7773C220.674 23.2669 220.619 22.818 220.51 22.4307C220.405 22.0433 220.248 21.7174 220.038 21.4531C219.828 21.1888 219.571 20.9906 219.266 20.8584C218.96 20.7217 218.609 20.6533 218.213 20.6533H215.984V19.0469H218.213C218.878 19.0469 219.487 19.1608 220.038 19.3887C220.594 19.612 221.075 19.9333 221.48 20.3525C221.886 20.7718 222.198 21.2731 222.417 21.8564C222.64 22.4352 222.752 23.0801 222.752 23.791V24.2627C222.752 24.9691 222.64 25.6139 222.417 26.1973C222.198 26.7806 221.886 27.2819 221.48 27.7012C221.079 28.1159 220.599 28.4372 220.038 28.665C219.482 28.8883 218.867 29 218.192 29ZM217.188 19.0469V29H215.137V19.0469H217.188ZM230.921 27.4004V29H225.623V27.4004H230.921ZM226.293 19.0469V29H224.242V19.0469H226.293ZM230.23 23.1006V24.6592H225.623V23.1006H230.23ZM230.914 19.0469V20.6533H225.623V19.0469H230.914ZM240.293 23.791V24.2627C240.293 25.0192 240.19 25.6982 239.985 26.2998C239.78 26.9014 239.491 27.4141 239.117 27.8379C238.743 28.2572 238.297 28.5785 237.777 28.8018C237.262 29.0251 236.69 29.1367 236.062 29.1367C235.437 29.1367 234.865 29.0251 234.346 28.8018C233.831 28.5785 233.384 28.2572 233.006 27.8379C232.628 27.4141 232.334 26.9014 232.124 26.2998C231.919 25.6982 231.816 25.0192 231.816 24.2627V23.791C231.816 23.0299 231.919 22.3509 232.124 21.7539C232.329 21.1523 232.618 20.6396 232.992 20.2158C233.37 19.792 233.817 19.4684 234.332 19.2451C234.852 19.0218 235.424 18.9102 236.048 18.9102C236.677 18.9102 237.249 19.0218 237.764 19.2451C238.283 19.4684 238.73 19.792 239.104 20.2158C239.482 20.6396 239.773 21.1523 239.979 21.7539C240.188 22.3509 240.293 23.0299 240.293 23.791ZM238.222 24.2627V23.7773C238.222 23.2487 238.174 22.7839 238.078 22.3828C237.982 21.9818 237.841 21.6445 237.654 21.3711C237.467 21.0977 237.24 20.8926 236.971 20.7559C236.702 20.6146 236.394 20.5439 236.048 20.5439C235.701 20.5439 235.394 20.6146 235.125 20.7559C234.861 20.8926 234.635 21.0977 234.448 21.3711C234.266 21.6445 234.127 21.9818 234.031 22.3828C233.936 22.7839 233.888 23.2487 233.888 23.7773V24.2627C233.888 24.7868 233.936 25.2516 234.031 25.6572C234.127 26.0583 234.268 26.3978 234.455 26.6758C234.642 26.9492 234.87 27.1566 235.139 27.2979C235.408 27.4391 235.715 27.5098 236.062 27.5098C236.408 27.5098 236.715 27.4391 236.984 27.2979C237.253 27.1566 237.479 26.9492 237.661 26.6758C237.843 26.3978 237.982 26.0583 238.078 25.6572C238.174 25.2516 238.222 24.7868 238.222 24.2627ZM246.951 26.3955C246.951 26.2178 246.924 26.0583 246.869 25.917C246.819 25.7712 246.723 25.639 246.582 25.5205C246.441 25.3975 246.243 25.2767 245.987 25.1582C245.732 25.0397 245.402 24.9167 244.996 24.7891C244.545 24.6432 244.117 24.4792 243.711 24.2969C243.31 24.1146 242.954 23.9027 242.645 23.6611C242.339 23.415 242.098 23.1302 241.92 22.8066C241.747 22.4831 241.66 22.1071 241.66 21.6787C241.66 21.264 241.751 20.888 241.934 20.5508C242.116 20.209 242.371 19.9173 242.699 19.6758C243.027 19.4297 243.415 19.2406 243.861 19.1084C244.312 18.9762 244.807 18.9102 245.345 18.9102C246.078 18.9102 246.719 19.0423 247.266 19.3066C247.812 19.571 248.236 19.9333 248.537 20.3936C248.842 20.8538 248.995 21.3802 248.995 21.9727H246.958C246.958 21.681 246.896 21.4258 246.773 21.207C246.655 20.9837 246.473 20.8083 246.227 20.6807C245.985 20.5531 245.68 20.4893 245.311 20.4893C244.955 20.4893 244.659 20.5439 244.422 20.6533C244.185 20.7581 244.007 20.9017 243.889 21.084C243.77 21.2617 243.711 21.4622 243.711 21.6855C243.711 21.8542 243.752 22.0068 243.834 22.1436C243.921 22.2803 244.048 22.4079 244.217 22.5264C244.385 22.6449 244.593 22.7565 244.839 22.8613C245.085 22.9661 245.37 23.0687 245.693 23.1689C246.236 23.333 246.712 23.5176 247.122 23.7227C247.537 23.9277 247.883 24.1579 248.161 24.4131C248.439 24.6683 248.649 24.9577 248.79 25.2812C248.931 25.6048 249.002 25.9717 249.002 26.3818C249.002 26.8148 248.918 27.2021 248.749 27.5439C248.58 27.8857 248.337 28.1751 248.018 28.4121C247.699 28.6491 247.318 28.8291 246.876 28.9521C246.434 29.0752 245.939 29.1367 245.393 29.1367C244.9 29.1367 244.415 29.0729 243.937 28.9453C243.458 28.8132 243.023 28.6149 242.631 28.3506C242.243 28.0863 241.934 27.749 241.701 27.3389C241.469 26.9287 241.353 26.4434 241.353 25.8828H243.41C243.41 26.1927 243.458 26.4548 243.554 26.6689C243.649 26.8831 243.784 27.0563 243.957 27.1885C244.135 27.3206 244.344 27.4163 244.586 27.4756C244.832 27.5348 245.101 27.5645 245.393 27.5645C245.748 27.5645 246.04 27.5143 246.268 27.4141C246.5 27.3138 246.671 27.1748 246.78 26.9971C246.894 26.8193 246.951 26.6188 246.951 26.3955Z" fill="#AAAAAA"/>
<path d="M318.765 25.4521H316.229V23.8525H318.765C319.157 23.8525 319.476 23.7887 319.722 23.6611C319.968 23.529 320.148 23.3467 320.262 23.1143C320.376 22.8818 320.433 22.6198 320.433 22.3281C320.433 22.0319 320.376 21.7562 320.262 21.501C320.148 21.2458 319.968 21.0407 319.722 20.8857C319.476 20.7308 319.157 20.6533 318.765 20.6533H316.939V29H314.889V19.0469H318.765C319.544 19.0469 320.212 19.1882 320.768 19.4707C321.328 19.7487 321.757 20.1338 322.053 20.626C322.349 21.1182 322.497 21.681 322.497 22.3145C322.497 22.957 322.349 23.513 322.053 23.9824C321.757 24.4518 321.328 24.8141 320.768 25.0693C320.212 25.3245 319.544 25.4521 318.765 25.4521ZM330.311 27.4004V29H325.3V27.4004H330.311ZM325.963 19.0469V29H323.912V19.0469H325.963ZM335.67 20.749L332.963 29H330.782L334.48 19.0469H335.868L335.67 20.749ZM337.919 29L335.205 20.749L334.986 19.0469H336.388L340.106 29H337.919ZM337.796 25.2949V26.9014H332.539V25.2949H337.796ZM341.494 19.0469L343.572 23.5859L345.65 19.0469H347.886L344.611 25.377V29H342.533V25.377L339.252 19.0469H341.494ZM355.193 27.4004V29H350.183V27.4004H355.193ZM350.846 19.0469V29H348.795V19.0469H350.846ZM358.55 19.0469V29H356.506V19.0469H358.55ZM365.652 26.3955C365.652 26.2178 365.625 26.0583 365.57 25.917C365.52 25.7712 365.424 25.639 365.283 25.5205C365.142 25.3975 364.944 25.2767 364.688 25.1582C364.433 25.0397 364.103 24.9167 363.697 24.7891C363.246 24.6432 362.818 24.4792 362.412 24.2969C362.011 24.1146 361.656 23.9027 361.346 23.6611C361.04 23.415 360.799 23.1302 360.621 22.8066C360.448 22.4831 360.361 22.1071 360.361 21.6787C360.361 21.264 360.452 20.888 360.635 20.5508C360.817 20.209 361.072 19.9173 361.4 19.6758C361.729 19.4297 362.116 19.2406 362.562 19.1084C363.014 18.9762 363.508 18.9102 364.046 18.9102C364.78 18.9102 365.42 19.0423 365.967 19.3066C366.514 19.571 366.938 19.9333 367.238 20.3936C367.544 20.8538 367.696 21.3802 367.696 21.9727H365.659C365.659 21.681 365.598 21.4258 365.475 21.207C365.356 20.9837 365.174 20.8083 364.928 20.6807C364.686 20.5531 364.381 20.4893 364.012 20.4893C363.656 20.4893 363.36 20.5439 363.123 20.6533C362.886 20.7581 362.708 20.9017 362.59 21.084C362.471 21.2617 362.412 21.4622 362.412 21.6855C362.412 21.8542 362.453 22.0068 362.535 22.1436C362.622 22.2803 362.749 22.4079 362.918 22.5264C363.087 22.6449 363.294 22.7565 363.54 22.8613C363.786 22.9661 364.071 23.0687 364.395 23.1689C364.937 23.333 365.413 23.5176 365.823 23.7227C366.238 23.9277 366.584 24.1579 366.862 24.4131C367.14 24.6683 367.35 24.9577 367.491 25.2812C367.632 25.6048 367.703 25.9717 367.703 26.3818C367.703 26.8148 367.619 27.2021 367.45 27.5439C367.282 27.8857 367.038 28.1751 366.719 28.4121C366.4 28.6491 366.019 28.8291 365.577 28.9521C365.135 29.0752 364.641 29.1367 364.094 29.1367C363.602 29.1367 363.116 29.0729 362.638 28.9453C362.159 28.8132 361.724 28.6149 361.332 28.3506C360.945 28.0863 360.635 27.749 360.402 27.3389C360.17 26.9287 360.054 26.4434 360.054 25.8828H362.111C362.111 26.1927 362.159 26.4548 362.255 26.6689C362.351 26.8831 362.485 27.0563 362.658 27.1885C362.836 27.3206 363.046 27.4163 363.287 27.4756C363.533 27.5348 363.802 27.5645 364.094 27.5645C364.449 27.5645 364.741 27.5143 364.969 27.4141C365.201 27.3138 365.372 27.1748 365.481 26.9971C365.595 26.8193 365.652 26.6188 365.652 26.3955ZM373.548 19.0469V29H371.504V19.0469H373.548ZM376.61 19.0469V20.6533H368.489V19.0469H376.61ZM382.852 26.3955C382.852 26.2178 382.824 26.0583 382.77 25.917C382.719 25.7712 382.624 25.639 382.482 25.5205C382.341 25.3975 382.143 25.2767 381.888 25.1582C381.632 25.0397 381.302 24.9167 380.896 24.7891C380.445 24.6432 380.017 24.4792 379.611 24.2969C379.21 24.1146 378.855 23.9027 378.545 23.6611C378.24 23.415 377.998 23.1302 377.82 22.8066C377.647 22.4831 377.561 22.1071 377.561 21.6787C377.561 21.264 377.652 20.888 377.834 20.5508C378.016 20.209 378.271 19.9173 378.6 19.6758C378.928 19.4297 379.315 19.2406 379.762 19.1084C380.213 18.9762 380.707 18.9102 381.245 18.9102C381.979 18.9102 382.619 19.0423 383.166 19.3066C383.713 19.571 384.137 19.9333 384.438 20.3936C384.743 20.8538 384.896 21.3802 384.896 21.9727H382.858C382.858 21.681 382.797 21.4258 382.674 21.207C382.555 20.9837 382.373 20.8083 382.127 20.6807C381.885 20.5531 381.58 20.4893 381.211 20.4893C380.855 20.4893 380.559 20.5439 380.322 20.6533C380.085 20.7581 379.908 20.9017 379.789 21.084C379.671 21.2617 379.611 21.4622 379.611 21.6855C379.611 21.8542 379.652 22.0068 379.734 22.1436C379.821 22.2803 379.949 22.4079 380.117 22.5264C380.286 22.6449 380.493 22.7565 380.739 22.8613C380.985 22.9661 381.27 23.0687 381.594 23.1689C382.136 23.333 382.612 23.5176 383.022 23.7227C383.437 23.9277 383.784 24.1579 384.062 24.4131C384.34 24.6683 384.549 24.9577 384.69 25.2812C384.832 25.6048 384.902 25.9717 384.902 26.3818C384.902 26.8148 384.818 27.2021 384.649 27.5439C384.481 27.8857 384.237 28.1751 383.918 28.4121C383.599 28.6491 383.218 28.8291 382.776 28.9521C382.334 29.0752 381.84 29.1367 381.293 29.1367C380.801 29.1367 380.315 29.0729 379.837 28.9453C379.358 28.8132 378.923 28.6149 378.531 28.3506C378.144 28.0863 377.834 27.749 377.602 27.3389C377.369 26.9287 377.253 26.4434 377.253 25.8828H379.311C379.311 26.1927 379.358 26.4548 379.454 26.6689C379.55 26.8831 379.684 27.0563 379.857 27.1885C380.035 27.3206 380.245 27.4163 380.486 27.4756C380.732 27.5348 381.001 27.5645 381.293 27.5645C381.648 27.5645 381.94 27.5143 382.168 27.4141C382.4 27.3138 382.571 27.1748 382.681 26.9971C382.795 26.8193 382.852 26.6188 382.852 26.3955Z" fill="#AAAAAA"/>
<path d="M456.658 25.6982H458.702C458.661 26.3682 458.477 26.9629 458.148 27.4824C457.825 28.002 457.371 28.4076 456.788 28.6992C456.209 28.9909 455.512 29.1367 454.696 29.1367C454.058 29.1367 453.486 29.0273 452.98 28.8086C452.475 28.5853 452.042 28.2663 451.682 27.8516C451.326 27.4368 451.055 26.9355 450.868 26.3477C450.681 25.7598 450.588 25.1012 450.588 24.3721V23.6816C450.588 22.9525 450.684 22.2939 450.875 21.7061C451.071 21.1136 451.349 20.61 451.709 20.1953C452.074 19.7806 452.509 19.4616 453.015 19.2383C453.521 19.015 454.086 18.9033 454.71 18.9033C455.539 18.9033 456.239 19.0537 456.809 19.3545C457.383 19.6553 457.827 20.07 458.142 20.5986C458.461 21.1273 458.652 21.7288 458.716 22.4033H456.665C456.642 22.0023 456.562 21.6628 456.426 21.3848C456.289 21.1022 456.082 20.8903 455.804 20.749C455.53 20.6032 455.166 20.5303 454.71 20.5303C454.368 20.5303 454.07 20.5941 453.814 20.7217C453.559 20.8493 453.345 21.043 453.172 21.3027C452.999 21.5625 452.869 21.8906 452.782 22.2871C452.7 22.679 452.659 23.1393 452.659 23.668V24.3721C452.659 24.887 452.698 25.3405 452.775 25.7324C452.853 26.1198 452.971 26.4479 453.131 26.7168C453.295 26.9811 453.505 27.1816 453.76 27.3184C454.02 27.4505 454.332 27.5166 454.696 27.5166C455.125 27.5166 455.478 27.4482 455.756 27.3115C456.034 27.1748 456.246 26.972 456.392 26.7031C456.542 26.4342 456.631 26.0993 456.658 25.6982ZM468.225 23.791V24.2627C468.225 25.0192 468.122 25.6982 467.917 26.2998C467.712 26.9014 467.423 27.4141 467.049 27.8379C466.675 28.2572 466.229 28.5785 465.709 28.8018C465.194 29.0251 464.622 29.1367 463.993 29.1367C463.369 29.1367 462.797 29.0251 462.277 28.8018C461.762 28.5785 461.316 28.2572 460.938 27.8379C460.559 27.4141 460.265 26.9014 460.056 26.2998C459.851 25.6982 459.748 25.0192 459.748 24.2627V23.791C459.748 23.0299 459.851 22.3509 460.056 21.7539C460.261 21.1523 460.55 20.6396 460.924 20.2158C461.302 19.792 461.749 19.4684 462.264 19.2451C462.783 19.0218 463.355 18.9102 463.979 18.9102C464.608 18.9102 465.18 19.0218 465.695 19.2451C466.215 19.4684 466.661 19.792 467.035 20.2158C467.413 20.6396 467.705 21.1523 467.91 21.7539C468.12 22.3509 468.225 23.0299 468.225 23.791ZM466.153 24.2627V23.7773C466.153 23.2487 466.105 22.7839 466.01 22.3828C465.914 21.9818 465.773 21.6445 465.586 21.3711C465.399 21.0977 465.171 20.8926 464.902 20.7559C464.633 20.6146 464.326 20.5439 463.979 20.5439C463.633 20.5439 463.326 20.6146 463.057 20.7559C462.792 20.8926 462.567 21.0977 462.38 21.3711C462.198 21.6445 462.059 21.9818 461.963 22.3828C461.867 22.7839 461.819 23.2487 461.819 23.7773V24.2627C461.819 24.7868 461.867 25.2516 461.963 25.6572C462.059 26.0583 462.2 26.3978 462.387 26.6758C462.574 26.9492 462.801 27.1566 463.07 27.2979C463.339 27.4391 463.647 27.5098 463.993 27.5098C464.34 27.5098 464.647 27.4391 464.916 27.2979C465.185 27.1566 465.41 26.9492 465.593 26.6758C465.775 26.3978 465.914 26.0583 466.01 25.6572C466.105 25.2516 466.153 24.7868 466.153 24.2627ZM470.638 19.0469H472.374L474.931 26.3545L477.487 19.0469H479.224L475.628 29H474.233L470.638 19.0469ZM469.701 19.0469H471.431L471.745 26.1699V29H469.701V19.0469ZM478.431 19.0469H480.167V29H478.116V26.1699L478.431 19.0469ZM482.901 19.0469H484.638L487.194 26.3545L489.751 19.0469H491.487L487.892 29H486.497L482.901 19.0469ZM481.965 19.0469H483.694L484.009 26.1699V29H481.965V19.0469ZM490.694 19.0469H492.431V29H490.38V26.1699L490.694 19.0469ZM499.725 19.0469H501.769V25.623C501.769 26.3887 501.604 27.0335 501.276 27.5576C500.953 28.0817 500.504 28.4759 499.93 28.7402C499.36 29.0046 498.704 29.1367 497.961 29.1367C497.218 29.1367 496.557 29.0046 495.979 28.7402C495.404 28.4759 494.953 28.0817 494.625 27.5576C494.301 27.0335 494.14 26.3887 494.14 25.623V19.0469H496.19V25.623C496.19 26.0697 496.261 26.4342 496.402 26.7168C496.544 26.9993 496.746 27.2067 497.011 27.3389C497.28 27.471 497.596 27.5371 497.961 27.5371C498.335 27.5371 498.651 27.471 498.911 27.3389C499.175 27.2067 499.376 26.9993 499.513 26.7168C499.654 26.4342 499.725 26.0697 499.725 25.623V19.0469ZM511.558 19.0469V29H509.507L505.508 22.3281V29H503.457V19.0469H505.508L509.514 25.7256V19.0469H511.558ZM515.522 19.0469V29H513.479V19.0469H515.522ZM521.688 19.0469V29H519.645V19.0469H521.688ZM524.751 19.0469V20.6533H516.63V19.0469H524.751ZM527.396 19.0469L529.475 23.5859L531.553 19.0469H533.788L530.514 25.377V29H528.436V25.377L525.154 19.0469H527.396Z" fill="#AAAAAA"/>
<path d="M604.658 25.6982H606.702C606.661 26.3682 606.477 26.9629 606.148 27.4824C605.825 28.002 605.371 28.4076 604.788 28.6992C604.209 28.9909 603.512 29.1367 602.696 29.1367C602.058 29.1367 601.486 29.0273 600.98 28.8086C600.475 28.5853 600.042 28.2663 599.682 27.8516C599.326 27.4368 599.055 26.9355 598.868 26.3477C598.681 25.7598 598.588 25.1012 598.588 24.3721V23.6816C598.588 22.9525 598.684 22.2939 598.875 21.7061C599.071 21.1136 599.349 20.61 599.709 20.1953C600.074 19.7806 600.509 19.4616 601.015 19.2383C601.521 19.015 602.086 18.9033 602.71 18.9033C603.539 18.9033 604.239 19.0537 604.809 19.3545C605.383 19.6553 605.827 20.07 606.142 20.5986C606.461 21.1273 606.652 21.7288 606.716 22.4033H604.665C604.642 22.0023 604.562 21.6628 604.426 21.3848C604.289 21.1022 604.082 20.8903 603.804 20.749C603.53 20.6032 603.166 20.5303 602.71 20.5303C602.368 20.5303 602.07 20.5941 601.814 20.7217C601.559 20.8493 601.345 21.043 601.172 21.3027C600.999 21.5625 600.869 21.8906 600.782 22.2871C600.7 22.679 600.659 23.1393 600.659 23.668V24.3721C600.659 24.887 600.698 25.3405 600.775 25.7324C600.853 26.1198 600.971 26.4479 601.131 26.7168C601.295 26.9811 601.505 27.1816 601.76 27.3184C602.02 27.4505 602.332 27.5166 602.696 27.5166C603.125 27.5166 603.478 27.4482 603.756 27.3115C604.034 27.1748 604.246 26.972 604.392 26.7031C604.542 26.4342 604.631 26.0993 604.658 25.6982ZM614.687 23.1006V24.7002H609.491V23.1006H614.687ZM610.1 19.0469V29H608.049V19.0469H610.1ZM616.149 19.0469V29H614.105V19.0469H616.149ZM622.104 20.749L619.396 29H617.216L620.914 19.0469H622.302L622.104 20.749ZM624.353 29L621.639 20.749L621.42 19.0469H622.821L626.54 29H624.353ZM624.229 25.2949V26.9014H618.973V25.2949H624.229ZM635.563 19.0469V29H633.513L629.514 22.3281V29H627.463V19.0469H629.514L633.52 25.7256V19.0469H635.563ZM645.448 19.0469V29H643.397L639.398 22.3281V29H637.348V19.0469H639.398L643.404 25.7256V19.0469H645.448ZM653.911 27.4004V29H648.613V27.4004H653.911ZM649.283 19.0469V29H647.232V19.0469H649.283ZM653.221 23.1006V24.6592H648.613V23.1006H653.221ZM653.904 19.0469V20.6533H648.613V19.0469H653.904ZM661.506 27.4004V29H656.495V27.4004H661.506ZM657.158 19.0469V29H655.107V19.0469H657.158ZM667.863 26.3955C667.863 26.2178 667.836 26.0583 667.781 25.917C667.731 25.7712 667.635 25.639 667.494 25.5205C667.353 25.3975 667.155 25.2767 666.899 25.1582C666.644 25.0397 666.314 24.9167 665.908 24.7891C665.457 24.6432 665.029 24.4792 664.623 24.2969C664.222 24.1146 663.867 23.9027 663.557 23.6611C663.251 23.415 663.01 23.1302 662.832 22.8066C662.659 22.4831 662.572 22.1071 662.572 21.6787C662.572 21.264 662.663 20.888 662.846 20.5508C663.028 20.209 663.283 19.9173 663.611 19.6758C663.939 19.4297 664.327 19.2406 664.773 19.1084C665.225 18.9762 665.719 18.9102 666.257 18.9102C666.991 18.9102 667.631 19.0423 668.178 19.3066C668.725 19.571 669.148 19.9333 669.449 20.3936C669.755 20.8538 669.907 21.3802 669.907 21.9727H667.87C667.87 21.681 667.809 21.4258 667.686 21.207C667.567 20.9837 667.385 20.8083 667.139 20.6807C666.897 20.5531 666.592 20.4893 666.223 20.4893C665.867 20.4893 665.571 20.5439 665.334 20.6533C665.097 20.7581 664.919 20.9017 664.801 21.084C664.682 21.2617 664.623 21.4622 664.623 21.6855C664.623 21.8542 664.664 22.0068 664.746 22.1436C664.833 22.2803 664.96 22.4079 665.129 22.5264C665.298 22.6449 665.505 22.7565 665.751 22.8613C665.997 22.9661 666.282 23.0687 666.605 23.1689C667.148 23.333 667.624 23.5176 668.034 23.7227C668.449 23.9277 668.795 24.1579 669.073 24.4131C669.351 24.6683 669.561 24.9577 669.702 25.2812C669.843 25.6048 669.914 25.9717 669.914 26.3818C669.914 26.8148 669.83 27.2021 669.661 27.5439C669.493 27.8857 669.249 28.1751 668.93 28.4121C668.611 28.6491 668.23 28.8291 667.788 28.9521C667.346 29.0752 666.852 29.1367 666.305 29.1367C665.812 29.1367 665.327 29.0729 664.849 28.9453C664.37 28.8132 663.935 28.6149 663.543 28.3506C663.156 28.0863 662.846 27.749 662.613 27.3389C662.381 26.9287 662.265 26.4434 662.265 25.8828H664.322C664.322 26.1927 664.37 26.4548 664.466 26.6689C664.562 26.8831 664.696 27.0563 664.869 27.1885C665.047 27.3206 665.257 27.4163 665.498 27.4756C665.744 27.5348 666.013 27.5645 666.305 27.5645C666.66 27.5645 666.952 27.5143 667.18 27.4141C667.412 27.3138 667.583 27.1748 667.692 26.9971C667.806 26.8193 667.863 26.6188 667.863 26.3955Z" fill="#AAAAAA"/>
<path d="M739.936 20.749L737.229 29H735.048L738.746 19.0469H740.134L739.936 20.749ZM742.185 29L739.471 20.749L739.252 19.0469H740.653L744.372 29H742.185ZM742.062 25.2949V26.9014H736.805V25.2949H742.062ZM749.191 24.6318H746.635L746.621 23.2236H748.768C749.146 23.2236 749.456 23.1758 749.697 23.0801C749.939 22.9798 750.119 22.8363 750.237 22.6494C750.36 22.458 750.422 22.2256 750.422 21.9521C750.422 21.6423 750.363 21.3916 750.244 21.2002C750.13 21.0088 749.95 20.8698 749.704 20.7832C749.463 20.6966 749.15 20.6533 748.768 20.6533H747.346V29H745.295V19.0469H748.768C749.346 19.0469 749.864 19.1016 750.319 19.2109C750.78 19.3203 751.169 19.4867 751.488 19.71C751.807 19.9333 752.051 20.2158 752.22 20.5576C752.388 20.8949 752.473 21.2959 752.473 21.7607C752.473 22.1709 752.379 22.5492 752.192 22.8955C752.01 23.2419 751.721 23.5244 751.324 23.7432C750.932 23.9619 750.42 24.0827 749.786 24.1055L749.191 24.6318ZM749.103 29H746.074L746.874 27.4004H749.103C749.463 27.4004 749.757 27.3434 749.984 27.2295C750.212 27.111 750.381 26.9515 750.49 26.751C750.6 26.5505 750.654 26.3203 750.654 26.0605C750.654 25.7689 750.604 25.516 750.504 25.3018C750.408 25.0876 750.253 24.9235 750.039 24.8096C749.825 24.6911 749.542 24.6318 749.191 24.6318H747.216L747.229 23.2236H749.69L750.162 23.7773C750.768 23.7682 751.256 23.8753 751.625 24.0986C751.999 24.3174 752.27 24.6022 752.438 24.9531C752.612 25.304 752.698 25.68 752.698 26.0811C752.698 26.7191 752.559 27.2568 752.281 27.6943C752.003 28.1273 751.595 28.4531 751.058 28.6719C750.524 28.8906 749.873 29 749.103 29ZM762.412 23.791V24.2627C762.412 25.0192 762.31 25.6982 762.104 26.2998C761.899 26.9014 761.61 27.4141 761.236 27.8379C760.863 28.2572 760.416 28.5785 759.896 28.8018C759.382 29.0251 758.81 29.1367 758.181 29.1367C757.556 29.1367 756.984 29.0251 756.465 28.8018C755.95 28.5785 755.503 28.2572 755.125 27.8379C754.747 27.4141 754.453 26.9014 754.243 26.2998C754.038 25.6982 753.936 25.0192 753.936 24.2627V23.791C753.936 23.0299 754.038 22.3509 754.243 21.7539C754.448 21.1523 754.738 20.6396 755.111 20.2158C755.49 19.792 755.936 19.4684 756.451 19.2451C756.971 19.0218 757.543 18.9102 758.167 18.9102C758.796 18.9102 759.368 19.0218 759.883 19.2451C760.402 19.4684 760.849 19.792 761.223 20.2158C761.601 20.6396 761.893 21.1523 762.098 21.7539C762.307 22.3509 762.412 23.0299 762.412 23.791ZM760.341 24.2627V23.7773C760.341 23.2487 760.293 22.7839 760.197 22.3828C760.102 21.9818 759.96 21.6445 759.773 21.3711C759.587 21.0977 759.359 20.8926 759.09 20.7559C758.821 20.6146 758.513 20.5439 758.167 20.5439C757.821 20.5439 757.513 20.6146 757.244 20.7559C756.98 20.8926 756.754 21.0977 756.567 21.3711C756.385 21.6445 756.246 21.9818 756.15 22.3828C756.055 22.7839 756.007 23.2487 756.007 23.7773V24.2627C756.007 24.7868 756.055 25.2516 756.15 25.6572C756.246 26.0583 756.387 26.3978 756.574 26.6758C756.761 26.9492 756.989 27.1566 757.258 27.2979C757.527 27.4391 757.834 27.5098 758.181 27.5098C758.527 27.5098 758.835 27.4391 759.104 27.2979C759.372 27.1566 759.598 26.9492 759.78 26.6758C759.963 26.3978 760.102 26.0583 760.197 25.6572C760.293 25.2516 760.341 24.7868 760.341 24.2627ZM769.385 19.0469H771.429V25.623C771.429 26.3887 771.265 27.0335 770.937 27.5576C770.613 28.0817 770.164 28.4759 769.59 28.7402C769.02 29.0046 768.364 29.1367 767.621 29.1367C766.878 29.1367 766.217 29.0046 765.639 28.7402C765.064 28.4759 764.613 28.0817 764.285 27.5576C763.962 27.0335 763.8 26.3887 763.8 25.623V19.0469H765.851V25.623C765.851 26.0697 765.921 26.4342 766.062 26.7168C766.204 26.9993 766.407 27.2067 766.671 27.3389C766.94 27.471 767.257 27.5371 767.621 27.5371C767.995 27.5371 768.312 27.471 768.571 27.3389C768.836 27.2067 769.036 26.9993 769.173 26.7168C769.314 26.4342 769.385 26.0697 769.385 25.623V19.0469ZM777.567 19.0469V29H775.523V19.0469H777.567ZM780.63 19.0469V20.6533H772.509V19.0469H780.63Z" fill="#AAAAAA"/>
<path d="M865.87 32.17L860.28 26.58C861.35 25.35 862 23.75 862 22C862 18.13 858.87 15 855 15C851.13 15 848 18.13 848 22C848 25.87 851.13 29 855 29C856.75 29 858.35 28.35 859.58 27.29L865.17 32.88L865.87 32.17ZM855 28C851.69 28 849 25.31 849 22C849 18.69 851.69 16 855 16C858.31 16 861 18.69 861 22C861 25.31 858.31 28 855 28Z" fill="#AAAAAA"/>
<path d="M1102.45 30.975L1109.43 24L1102.45 17.025L1103.52 15.96L1111.54 24L1103.52 32.025L1102.45 30.975Z" fill="#AAAAAA"/>
</svg>
