<svg width="67" height="40" viewBox="0 0 67 40" fill="none" xmlns="http://www.w3.org/2000/svg">
<path d="M22.9999 12H21.9999H12.5699C11.4999 12 10.5899 12.67 10.3799 13.61L9.03995 19.61C8.76995 20.85 9.81995 22 11.2299 22H15.4599L13.9399 26.94C13.6199 27.97 14.4599 29 15.6199 29C16.1999 29 16.7599 28.76 17.1399 28.35L22.9999 22H26.9999V12H22.9999ZM16.3999 27.67C16.2099 27.88 15.9199 28 15.6199 28C15.3599 28 15.1199 27.89 14.9899 27.7C14.9199 27.6 14.8399 27.44 14.8999 27.23L16.4199 22.29L16.8199 21H15.4599H11.2299C10.8199 21 10.4299 20.83 10.1999 20.54C10.0799 20.39 9.94995 20.14 10.0199 19.82L11.3599 13.82C11.4599 13.35 11.9699 13 12.5699 13H21.9999V21.61L16.3999 27.67ZM25.9999 21H22.9999V13H25.9999V21Z" fill="white"/>
<path d="M41.7627 14.9443H42.0498V16.5166H41.9336C41.4141 16.5166 40.9515 16.5941 40.5459 16.749C40.1403 16.904 39.7962 17.125 39.5137 17.4121C39.2357 17.6947 39.0215 18.0365 38.8711 18.4375C38.7253 18.8385 38.6523 19.2874 38.6523 19.7842V21.4385C38.6523 21.7939 38.6865 22.1084 38.7549 22.3818C38.8278 22.6507 38.9303 22.8763 39.0625 23.0586C39.1992 23.2363 39.3587 23.3708 39.541 23.4619C39.7233 23.5485 39.9284 23.5918 40.1562 23.5918C40.3704 23.5918 40.5641 23.5462 40.7373 23.4551C40.915 23.3639 41.0654 23.2363 41.1885 23.0723C41.3161 22.9036 41.4118 22.7077 41.4756 22.4844C41.5439 22.2565 41.5781 22.0081 41.5781 21.7393C41.5781 21.4704 41.5439 21.222 41.4756 20.9941C41.4118 20.7663 41.3161 20.5703 41.1885 20.4062C41.0609 20.2376 40.9059 20.1077 40.7236 20.0166C40.5413 19.9255 40.3363 19.8799 40.1084 19.8799C39.7985 19.8799 39.5251 19.9528 39.2881 20.0986C39.0557 20.2399 38.8734 20.4222 38.7412 20.6455C38.609 20.8688 38.5384 21.1035 38.5293 21.3496L37.9346 20.9668C37.9482 20.6159 38.0212 20.2832 38.1533 19.9688C38.29 19.6543 38.4769 19.3763 38.7139 19.1348C38.9554 18.8887 39.2448 18.6973 39.582 18.5605C39.9193 18.4193 40.2998 18.3486 40.7236 18.3486C41.1885 18.3486 41.5964 18.4375 41.9473 18.6152C42.3027 18.793 42.599 19.0368 42.8359 19.3467C43.0729 19.6566 43.2507 20.0143 43.3691 20.4199C43.4876 20.8255 43.5469 21.2585 43.5469 21.7188C43.5469 22.2018 43.4671 22.6507 43.3076 23.0654C43.1527 23.4801 42.9271 23.8424 42.6309 24.1523C42.3392 24.4622 41.9883 24.7038 41.5781 24.877C41.168 25.0501 40.7077 25.1367 40.1973 25.1367C39.6686 25.1367 39.1878 25.041 38.7549 24.8496C38.3265 24.6536 37.9574 24.3802 37.6475 24.0293C37.3376 23.6784 37.0983 23.2614 36.9297 22.7783C36.7656 22.2952 36.6836 21.7666 36.6836 21.1924V20.4268C36.6836 19.6247 36.7998 18.891 37.0322 18.2256C37.2692 17.5557 37.6087 16.9769 38.0508 16.4893C38.4928 15.9971 39.026 15.6165 39.6504 15.3477C40.2747 15.0788 40.9788 14.9443 41.7627 14.9443ZM46.7393 19.1689H47.792C48.1292 19.1689 48.4072 19.112 48.626 18.998C48.8447 18.8796 49.0065 18.7155 49.1113 18.5059C49.2207 18.2917 49.2754 18.0433 49.2754 17.7607C49.2754 17.5055 49.2253 17.2799 49.125 17.084C49.0293 16.8835 48.8812 16.7285 48.6807 16.6191C48.4801 16.5052 48.2272 16.4482 47.9219 16.4482C47.6803 16.4482 47.457 16.4961 47.252 16.5918C47.0469 16.6875 46.8828 16.8219 46.7598 16.9951C46.6367 17.1683 46.5752 17.3779 46.5752 17.624H44.5996C44.5996 17.0771 44.7454 16.6009 45.0371 16.1953C45.3333 15.7897 45.7298 15.473 46.2266 15.2451C46.7233 15.0173 47.2702 14.9033 47.8672 14.9033C48.5417 14.9033 49.1318 15.0127 49.6377 15.2314C50.1436 15.4456 50.5378 15.7624 50.8203 16.1816C51.1029 16.6009 51.2441 17.1204 51.2441 17.7402C51.2441 18.0547 51.1712 18.36 51.0254 18.6562C50.8796 18.9479 50.6699 19.2122 50.3965 19.4492C50.1276 19.6816 49.7995 19.8685 49.4121 20.0098C49.0247 20.1465 48.5895 20.2148 48.1064 20.2148H46.7393V19.1689ZM46.7393 20.666V19.6475H48.1064C48.6488 19.6475 49.125 19.709 49.5352 19.832C49.9453 19.9551 50.2894 20.1328 50.5674 20.3652C50.8454 20.5931 51.055 20.8643 51.1963 21.1787C51.3376 21.4886 51.4082 21.8327 51.4082 22.2109C51.4082 22.6758 51.3193 23.0905 51.1416 23.4551C50.9639 23.8151 50.7132 24.1204 50.3896 24.3711C50.0706 24.6217 49.6969 24.8132 49.2686 24.9453C48.8402 25.0729 48.373 25.1367 47.8672 25.1367C47.4479 25.1367 47.0355 25.0798 46.6299 24.9658C46.2288 24.8473 45.8643 24.6719 45.5361 24.4395C45.2126 24.2025 44.9528 23.9062 44.7568 23.5508C44.5654 23.1908 44.4697 22.7646 44.4697 22.2725H46.4453C46.4453 22.5277 46.5091 22.7555 46.6367 22.9561C46.7643 23.1566 46.9398 23.3138 47.1631 23.4277C47.391 23.5417 47.6439 23.5986 47.9219 23.5986C48.2363 23.5986 48.5052 23.5417 48.7285 23.4277C48.9564 23.3092 49.1296 23.1452 49.248 22.9355C49.3711 22.7214 49.4326 22.473 49.4326 22.1904C49.4326 21.8258 49.3665 21.5342 49.2344 21.3154C49.1022 21.0921 48.9131 20.9281 48.667 20.8232C48.4209 20.7184 48.1292 20.666 47.792 20.666H46.7393ZM59.5703 23.4619V25H52.7617V23.6875L55.9814 20.2354C56.305 19.8753 56.5602 19.5586 56.7471 19.2852C56.9339 19.0072 57.0684 18.7588 57.1504 18.54C57.237 18.3167 57.2803 18.1048 57.2803 17.9043C57.2803 17.6035 57.2301 17.346 57.1299 17.1318C57.0296 16.9131 56.8815 16.7445 56.6855 16.626C56.4941 16.5075 56.2572 16.4482 55.9746 16.4482C55.6738 16.4482 55.4141 16.5212 55.1953 16.667C54.9811 16.8128 54.8171 17.0156 54.7031 17.2754C54.5938 17.5352 54.5391 17.8291 54.5391 18.1572H52.5635C52.5635 17.5648 52.7048 17.0225 52.9873 16.5303C53.2699 16.0335 53.6686 15.6393 54.1836 15.3477C54.6986 15.0514 55.3092 14.9033 56.0156 14.9033C56.7129 14.9033 57.3008 15.0173 57.7793 15.2451C58.2624 15.4684 58.627 15.792 58.873 16.2158C59.1237 16.6351 59.249 17.1364 59.249 17.7197C59.249 18.0479 59.1966 18.3691 59.0918 18.6836C58.987 18.9935 58.8366 19.3034 58.6406 19.6133C58.4492 19.9186 58.2168 20.2285 57.9434 20.543C57.6699 20.8574 57.3669 21.1833 57.0342 21.5205L55.3047 23.4619H59.5703Z" fill="white"/>
</svg>
