<svg width="75" height="40" viewBox="0 0 75 40" fill="none" xmlns="http://www.w3.org/2000/svg">
<path d="M24.77 19H20.54L22.06 14.06C22.38 13.03 21.54 12 20.38 12C19.8 12 19.24 12.24 18.86 12.65L13 19H9V29H13H14H23.43C24.49 29 25.41 28.33 25.62 27.39L26.96 21.39C27.23 20.15 26.18 19 24.77 19ZM13 28H10V20H13V28ZM25.98 21.17L24.64 27.17C24.54 27.65 24.03 28 23.43 28H14V19.39L19.6 13.33C19.79 13.12 20.08 13 20.38 13C20.64 13 20.88 13.11 21.01 13.3C21.08 13.4 21.16 13.56 21.1 13.77L19.58 18.71L19.18 20H20.53H24.76C25.17 20 25.56 20.17 25.79 20.46C25.92 20.61 26.05 20.86 25.98 21.17Z" fill="white"/>
<path d="M41.4824 15.0264V25H39.5137V17.2959L37.1484 18.0479V16.4961L41.2705 15.0264H41.4824ZM44.9004 24.0498C44.9004 23.7581 45.0007 23.5143 45.2012 23.3184C45.4062 23.1224 45.6774 23.0244 46.0146 23.0244C46.3519 23.0244 46.6208 23.1224 46.8213 23.3184C47.0264 23.5143 47.1289 23.7581 47.1289 24.0498C47.1289 24.3415 47.0264 24.5853 46.8213 24.7812C46.6208 24.9772 46.3519 25.0752 46.0146 25.0752C45.6774 25.0752 45.4062 24.9772 45.2012 24.7812C45.0007 24.5853 44.9004 24.3415 44.9004 24.0498ZM55.5439 15.0469V16.1064L51.6953 25H49.6172L53.4658 16.585H48.5098V15.0469H55.5439ZM62.5645 15.0469V25H60.5137V15.0469H62.5645ZM68.5254 15.0469L64.5811 19.9619L62.3047 22.4092L61.9355 20.4678L63.4736 18.3623L66.0098 15.0469H68.5254ZM66.1943 25L63.2617 20.3994L64.7793 19.1279L68.6211 25H66.1943Z" fill="white"/>
</svg>
