<svg width="77" height="40" viewBox="0 0 77 40" fill="none" xmlns="http://www.w3.org/2000/svg">
<path d="M28 21H24V25H22V21H18V19H22V15H24V19H28V21ZM20 15H8V16H20V15ZM8 20H16V19H8V20ZM8 24H16V23H8V24Z" fill="white"/>
<path d="M42.0703 22.3955C42.0703 22.2178 42.043 22.0583 41.9883 21.917C41.9382 21.7712 41.8424 21.639 41.7012 21.5205C41.5599 21.3975 41.3617 21.2767 41.1064 21.1582C40.8512 21.0397 40.5208 20.9167 40.1152 20.7891C39.6641 20.6432 39.2357 20.4792 38.8301 20.2969C38.429 20.1146 38.0736 19.9027 37.7637 19.6611C37.4583 19.415 37.2168 19.1302 37.0391 18.8066C36.8659 18.4831 36.7793 18.1071 36.7793 17.6787C36.7793 17.264 36.8704 16.888 37.0527 16.5508C37.235 16.209 37.4902 15.9173 37.8184 15.6758C38.1465 15.4297 38.5339 15.2406 38.9805 15.1084C39.4316 14.9762 39.9261 14.9102 40.4639 14.9102C41.1976 14.9102 41.8379 15.0423 42.3848 15.3066C42.9316 15.571 43.3555 15.9333 43.6562 16.3936C43.9616 16.8538 44.1143 17.3802 44.1143 17.9727H42.0771C42.0771 17.681 42.0156 17.4258 41.8926 17.207C41.7741 16.9837 41.5918 16.8083 41.3457 16.6807C41.1042 16.5531 40.7988 16.4893 40.4297 16.4893C40.0742 16.4893 39.778 16.5439 39.541 16.6533C39.304 16.7581 39.1263 16.9017 39.0078 17.084C38.8893 17.2617 38.8301 17.4622 38.8301 17.6855C38.8301 17.8542 38.8711 18.0068 38.9531 18.1436C39.0397 18.2803 39.1673 18.4079 39.3359 18.5264C39.5046 18.6449 39.7119 18.7565 39.958 18.8613C40.2041 18.9661 40.4889 19.0687 40.8125 19.1689C41.3548 19.333 41.8311 19.5176 42.2412 19.7227C42.6559 19.9277 43.0023 20.1579 43.2803 20.4131C43.5583 20.6683 43.7679 20.9577 43.9092 21.2812C44.0505 21.6048 44.1211 21.9717 44.1211 22.3818C44.1211 22.8148 44.0368 23.2021 43.8682 23.5439C43.6995 23.8857 43.4557 24.1751 43.1367 24.4121C42.8177 24.6491 42.4372 24.8291 41.9951 24.9521C41.5531 25.0752 41.0586 25.1367 40.5117 25.1367C40.0195 25.1367 39.5342 25.0729 39.0557 24.9453C38.5771 24.8132 38.1419 24.6149 37.75 24.3506C37.3626 24.0863 37.0527 23.749 36.8203 23.3389C36.5879 22.9287 36.4717 22.4434 36.4717 21.8828H38.5293C38.5293 22.1927 38.5771 22.4548 38.6729 22.6689C38.7686 22.8831 38.903 23.0563 39.0762 23.1885C39.2539 23.3206 39.4635 23.4163 39.7051 23.4756C39.9512 23.5348 40.2201 23.5645 40.5117 23.5645C40.8672 23.5645 41.1589 23.5143 41.3867 23.4141C41.6191 23.3138 41.79 23.1748 41.8994 22.9971C42.0133 22.8193 42.0703 22.6188 42.0703 22.3955ZM49.5625 16.749L46.8555 25H44.6748L48.373 15.0469H49.7607L49.5625 16.749ZM51.8115 25L49.0977 16.749L48.8789 15.0469H50.2803L53.999 25H51.8115ZM51.6885 21.2949V22.9014H46.4316V21.2949H51.6885ZM57.9502 22.9219L60.2949 15.0469H62.5781L59.1123 25H57.6084L57.9502 22.9219ZM55.79 15.0469L58.1279 22.9219L58.4834 25H56.9658L53.5205 15.0469H55.79ZM70.1865 23.4004V25H64.8887V23.4004H70.1865ZM65.5586 15.0469V25H63.5078V15.0469H65.5586ZM69.4961 19.1006V20.6592H64.8887V19.1006H69.4961ZM70.1797 15.0469V16.6533H64.8887V15.0469H70.1797Z" fill="white"/>
</svg>
